# Blender v2.90.1 OBJ File: 'project.blend'
# www.blender.org
o Cube
v 2.036832 2.036832 -2.036832
v 2.030389 -2.030389 -2.030389
v 2.036832 2.036832 2.036832
v 2.036832 -2.036832 2.036832
v -2.036832 2.036832 -2.036832
v -2.030388 -2.030389 -2.030389
v -2.036832 2.036832 2.036832
v -2.036832 -2.036832 2.036832
vt 0.875000 0.500000
vt 0.625000 0.750000
vt 0.625000 0.500000
vt 0.375000 0.750000
vt 0.625000 1.000000
vt 0.375000 1.000000
vt 0.625000 0.000000
vt 0.375000 0.250000
vt 0.375000 0.000000
vt 0.375000 0.500000
vt 0.125000 0.750000
vt 0.125000 0.500000
vt 0.875000 0.750000
vt 0.625000 0.250000
vn -0.0000 1.0000 0.0000
vn -0.0000 0.0000 1.0000
vn -1.0000 -0.0000 -0.0016
vn 0.0000 -1.0000 -0.0016
vn 1.0000 0.0000 -0.0016
vn -0.0000 -0.0016 -1.0000
vn -1.0000 -0.0016 0.0000
vn 1.0000 -0.0016 0.0000
s off
f 5/1/1 3/2/1 1/3/1
f 4/4/2 7/5/2 8/6/2
f 7/7/3 6/8/3 8/9/3
f 2/10/4 8/11/4 6/12/4
f 2/10/5 3/2/5 4/4/5
f 6/8/6 1/3/6 2/10/6
f 5/1/1 7/13/1 3/2/1
f 4/4/2 3/2/2 7/5/2
f 7/7/7 5/14/7 6/8/7
f 2/10/4 4/4/4 8/11/4
f 2/10/8 1/3/8 3/2/8
f 6/8/6 5/14/6 1/3/6
